<svg width="800" height="450" viewBox="0 0 800 450" fill="none" xmlns="http://www.w3.org/2000/svg">
  <rect width="800" height="450" fill="#0A0A0A"/>
  <rect x="1" y="1" width="798" height="448" stroke="#00FF87" stroke-width="2"/>
  
  <defs>
    <pattern id="gridMonitor" width="40" height="40" patternUnits="userSpaceOnUse">
      <path d="M 40 0 L 0 0 0 40" fill="none" stroke="#00FF87" stroke-width="0.5" opacity="0.1"/>
    </pattern>
  </defs>
  <rect width="800" height="450" fill="url(#gridMonitor)"/>
  
  <g transform="translate(400, 200)">
    <rect x="-150" y="-90" width="300" height="160" rx="8" fill="none" stroke="#00FF87" stroke-width="2"/>
    
    <rect x="-150" y="-90" width="300" height="20" fill="#00FF87" opacity="0.2"/>
    
    <rect x="-130" y="-50" width="120" height="80" rx="4" fill="none" stroke="#00FF87" stroke-width="1.5" opacity="0.6"/>
    <polyline points="-120,-30 -110,-10 -100,-35 -90,-5 -80,-25 -70,0 -60,-20 -50,5 -40,-15 -30,10" 
              stroke="#00FF87" stroke-width="2" fill="none"/>
    
    <rect x="20" y="-50" width="120" height="80" rx="4" fill="none" stroke="#00FF87" stroke-width="1.5" opacity="0.6"/>
    <rect x="35" y="-30" width="90" height="6" rx="3" fill="#00FF87" opacity="0.3"/>
    <rect x="35" y="-30" width="65" height="6" rx="3" fill="#00FF87"/>
    <rect x="35" y="-15" width="90" height="6" rx="3" fill="#00FF87" opacity="0.3"/>
    <rect x="35" y="-15" width="75" height="6" rx="3" fill="#00FF87"/>
    <rect x="35" y="0" width="90" height="6" rx="3" fill="#00FF87" opacity="0.3"/>
    <rect x="35" y="0" width="50" height="6" rx="3" fill="#00FF87"/>
    
    <circle cx="-80" cy="50" r="6" fill="#00FF87"/>
    <circle cx="0" cy="50" r="6" fill="#00FF87"/>
    <circle cx="80" cy="50" r="6" fill="#00FF87"/>
  </g>
  
  <circle cx="650" cy="100" r="30" fill="#00FF87" opacity="0.2"/>
  <path d="M 650 85 L 650 100 L 650 115" stroke="#00FF87" stroke-width="3" stroke-linecap="round"/>
  <circle cx="650" cy="120" r="3" fill="#00FF87"/>
  
  <text x="400" y="340" font-family="Arial, sans-serif" font-size="28" font-weight="700" 
        fill="#00FF87" text-anchor="middle">MONITORING INFRASTRUCTURE</text>
  <text x="400" y="370" font-family="Arial, sans-serif" font-size="14" 
        fill="#666" text-anchor="middle">Grafana • Prometheus • Slack Alerts • Real-time Dashboards</text>
</svg>
